# xmcd
#
# Track frame offsets: 
#        150
#        14992
#        27691
#        43958
#        60337
#        75091
#        93131
#        110752
#        125227
#        137957
#        152143
#        167692
#
# Disc length: 2421 seconds
#
# Revision: 0
# Processed by: cddbd v1.5.2PL0 Copyright (c) Steve Scherf et al.
# Submitted via: ExactAudioCopy v1.0b3
#
DISCID=a509730c
DTITLE=Cody Simpson - Surfers Paradise (Deluxe)
DYEAR=2013
DGENRE=Pop
TTITLE0=La Da Dee
TTITLE1=Pretty Brown Eyes
TTITLE2=No Ceiling
TTITLE3=Sinkin' In
TTITLE4=Summertime of Our Lives
TTITLE5=Imma Be Cool (feat. Asher Roth)
TTITLE6=If You Left Him For Me
TTITLE7=Love (feat. Ziggy Marley)
TTITLE8=Better Be Mine
TTITLE9=Children of the Ocean
TTITLE10=Rainy Day
TTITLE11=Awake All Night
EXTD=
EXTT0=
EXTT1=
EXTT2=
EXTT3=
EXTT4=
EXTT5=
EXTT6=
EXTT7=
EXTT8=
EXTT9=
EXTT10=
EXTT11=
PLAYORDER=
